<mxfile host="Electron" modified="2023-10-14T13:50:39.792Z" agent="Mozilla/5.0 (Windows NT 10.0; Win64; x64) AppleWebKit/537.36 (KHTML, like Gecko) draw.io/21.6.8 Chrome/114.0.5735.289 Electron/25.5.0 Safari/537.36" etag="3_Raq6IWF5oG0CzIbrEd" version="21.6.8" type="device">
  <diagram id="C5RBs43oDa-KdzZeNtuy" name="UML">
    <mxGraphModel dx="1360" dy="2053" grid="1" gridSize="10" guides="1" tooltips="1" connect="1" arrows="1" fold="1" page="1" pageScale="1" pageWidth="827" pageHeight="1169" math="0" shadow="0">
      <root>
        <mxCell id="WIyWlLk6GJQsqaUBKTNV-0" />
        <mxCell id="WIyWlLk6GJQsqaUBKTNV-1" parent="WIyWlLk6GJQsqaUBKTNV-0" />
        <mxCell id="avi4M7rhJnKpPUip_5Xu-54" value="Представление" style="shape=module;align=left;spacingLeft=20;align=center;verticalAlign=top;whiteSpace=wrap;html=1;" vertex="1" parent="WIyWlLk6GJQsqaUBKTNV-1">
          <mxGeometry x="40" y="-584" width="670" height="374" as="geometry" />
        </mxCell>
        <mxCell id="6uPMKLpAiF44iVFKBVUC-0" value="Presentation" style="shape=umlFrame;whiteSpace=wrap;html=1;pointerEvents=0;width=120;height=30;" vertex="1" parent="WIyWlLk6GJQsqaUBKTNV-1">
          <mxGeometry x="40" y="-620" width="760" height="420" as="geometry" />
        </mxCell>
        <mxCell id="6uPMKLpAiF44iVFKBVUC-1" value="Application" style="shape=umlFrame;whiteSpace=wrap;html=1;pointerEvents=0;width=120;height=30;" vertex="1" parent="WIyWlLk6GJQsqaUBKTNV-1">
          <mxGeometry x="40" y="-160" width="760" height="360" as="geometry" />
        </mxCell>
        <mxCell id="6uPMKLpAiF44iVFKBVUC-2" value="Data" style="shape=umlFrame;whiteSpace=wrap;html=1;pointerEvents=0;width=120;height=30;" vertex="1" parent="WIyWlLk6GJQsqaUBKTNV-1">
          <mxGeometry x="40" y="230" width="760" height="370" as="geometry" />
        </mxCell>
        <mxCell id="6uPMKLpAiF44iVFKBVUC-3" value="ПоисковикНаКарте" style="shape=module;align=left;spacingLeft=20;align=center;verticalAlign=top;whiteSpace=wrap;html=1;" vertex="1" parent="WIyWlLk6GJQsqaUBKTNV-1">
          <mxGeometry x="620" y="40" width="170" height="140" as="geometry" />
        </mxCell>
        <mxCell id="6uPMKLpAiF44iVFKBVUC-4" value="КартаОбъекты" style="shape=module;align=left;spacingLeft=20;align=center;verticalAlign=top;whiteSpace=wrap;html=1;" vertex="1" parent="WIyWlLk6GJQsqaUBKTNV-1">
          <mxGeometry x="70" y="270" width="710" height="110" as="geometry" />
        </mxCell>
        <mxCell id="6uPMKLpAiF44iVFKBVUC-5" value="СправочникАдресов" style="shape=module;align=left;spacingLeft=20;align=center;verticalAlign=top;whiteSpace=wrap;html=1;" vertex="1" parent="WIyWlLk6GJQsqaUBKTNV-1">
          <mxGeometry x="70" y="390" width="710" height="120" as="geometry" />
        </mxCell>
        <mxCell id="6uPMKLpAiF44iVFKBVUC-9" value="Маршрут" style="shape=module;align=left;spacingLeft=20;align=center;verticalAlign=top;whiteSpace=wrap;html=1;" vertex="1" parent="WIyWlLk6GJQsqaUBKTNV-1">
          <mxGeometry x="210" y="-150" width="270" height="180" as="geometry" />
        </mxCell>
        <mxCell id="6uPMKLpAiF44iVFKBVUC-6" value="Пробки" style="shape=module;align=left;spacingLeft=20;align=center;verticalAlign=top;whiteSpace=wrap;html=1;container=0;" vertex="1" parent="WIyWlLk6GJQsqaUBKTNV-1">
          <mxGeometry x="50" y="50" width="280" height="110" as="geometry" />
        </mxCell>
        <mxCell id="avi4M7rhJnKpPUip_5Xu-19" style="edgeStyle=orthogonalEdgeStyle;rounded=0;orthogonalLoop=1;jettySize=auto;html=1;exitX=0;exitY=0.5;exitDx=0;exitDy=0;entryX=0.5;entryY=0;entryDx=0;entryDy=0;" edge="1" parent="WIyWlLk6GJQsqaUBKTNV-1" source="6uPMKLpAiF44iVFKBVUC-21" target="avi4M7rhJnKpPUip_5Xu-14">
          <mxGeometry relative="1" as="geometry" />
        </mxCell>
        <mxCell id="avi4M7rhJnKpPUip_5Xu-20" style="edgeStyle=orthogonalEdgeStyle;rounded=0;orthogonalLoop=1;jettySize=auto;html=1;exitX=0.5;exitY=1;exitDx=0;exitDy=0;entryX=0.5;entryY=0;entryDx=0;entryDy=0;" edge="1" parent="WIyWlLk6GJQsqaUBKTNV-1" source="6uPMKLpAiF44iVFKBVUC-21" target="avi4M7rhJnKpPUip_5Xu-0">
          <mxGeometry relative="1" as="geometry" />
        </mxCell>
        <mxCell id="6uPMKLpAiF44iVFKBVUC-21" value="&lt;p style=&quot;margin:0px;margin-top:4px;text-align:center;&quot;&gt;&lt;b&gt;СервисМаршрута&lt;/b&gt;&lt;/p&gt;&lt;hr size=&quot;1&quot;&gt;&lt;div style=&quot;height:2px;&quot;&gt;&lt;/div&gt;" style="verticalAlign=top;align=left;overflow=fill;fontSize=12;fontFamily=Helvetica;html=1;whiteSpace=wrap;" vertex="1" parent="WIyWlLk6GJQsqaUBKTNV-1">
          <mxGeometry x="280" y="-40" width="140" height="60" as="geometry" />
        </mxCell>
        <mxCell id="avi4M7rhJnKpPUip_5Xu-16" style="edgeStyle=orthogonalEdgeStyle;rounded=0;orthogonalLoop=1;jettySize=auto;html=1;exitX=0.5;exitY=1;exitDx=0;exitDy=0;entryX=0.5;entryY=0;entryDx=0;entryDy=0;" edge="1" parent="WIyWlLk6GJQsqaUBKTNV-1" source="avi4M7rhJnKpPUip_5Xu-0" target="avi4M7rhJnKpPUip_5Xu-1">
          <mxGeometry relative="1" as="geometry" />
        </mxCell>
        <mxCell id="avi4M7rhJnKpPUip_5Xu-0" value="&lt;p style=&quot;margin:0px;margin-top:4px;text-align:center;&quot;&gt;&lt;b&gt;Объект&lt;/b&gt;&lt;/p&gt;&lt;hr size=&quot;1&quot;&gt;&lt;div style=&quot;height:2px;&quot;&gt;&lt;/div&gt;" style="verticalAlign=top;align=left;overflow=fill;fontSize=12;fontFamily=Helvetica;html=1;whiteSpace=wrap;" vertex="1" parent="WIyWlLk6GJQsqaUBKTNV-1">
          <mxGeometry x="520" y="300" width="140" height="60" as="geometry" />
        </mxCell>
        <mxCell id="avi4M7rhJnKpPUip_5Xu-1" value="&lt;p style=&quot;margin:0px;margin-top:4px;text-align:center;&quot;&gt;&lt;b&gt;Адрес&lt;/b&gt;&lt;/p&gt;&lt;hr size=&quot;1&quot;&gt;&lt;div style=&quot;height:2px;&quot;&gt;&lt;/div&gt;" style="verticalAlign=top;align=left;overflow=fill;fontSize=12;fontFamily=Helvetica;html=1;whiteSpace=wrap;" vertex="1" parent="WIyWlLk6GJQsqaUBKTNV-1">
          <mxGeometry x="520" y="400" width="140" height="60" as="geometry" />
        </mxCell>
        <mxCell id="avi4M7rhJnKpPUip_5Xu-17" style="edgeStyle=orthogonalEdgeStyle;rounded=0;orthogonalLoop=1;jettySize=auto;html=1;exitX=0.5;exitY=1;exitDx=0;exitDy=0;entryX=0;entryY=0.5;entryDx=0;entryDy=0;" edge="1" parent="WIyWlLk6GJQsqaUBKTNV-1" source="avi4M7rhJnKpPUip_5Xu-2" target="avi4M7rhJnKpPUip_5Xu-1">
          <mxGeometry relative="1" as="geometry" />
        </mxCell>
        <mxCell id="avi4M7rhJnKpPUip_5Xu-2" value="&lt;p style=&quot;margin:0px;margin-top:4px;text-align:center;&quot;&gt;&lt;b&gt;Дорога&lt;/b&gt;&lt;/p&gt;&lt;hr size=&quot;1&quot;&gt;&lt;div style=&quot;height:2px;&quot;&gt;&lt;/div&gt;" style="verticalAlign=top;align=left;overflow=fill;fontSize=12;fontFamily=Helvetica;html=1;whiteSpace=wrap;" vertex="1" parent="WIyWlLk6GJQsqaUBKTNV-1">
          <mxGeometry x="344" y="300" width="140" height="60" as="geometry" />
        </mxCell>
        <mxCell id="avi4M7rhJnKpPUip_5Xu-21" style="edgeStyle=orthogonalEdgeStyle;rounded=0;orthogonalLoop=1;jettySize=auto;html=1;exitX=0.5;exitY=1;exitDx=0;exitDy=0;entryX=0.75;entryY=0;entryDx=0;entryDy=0;" edge="1" parent="WIyWlLk6GJQsqaUBKTNV-1" source="avi4M7rhJnKpPUip_5Xu-13" target="avi4M7rhJnKpPUip_5Xu-0">
          <mxGeometry relative="1" as="geometry" />
        </mxCell>
        <mxCell id="avi4M7rhJnKpPUip_5Xu-22" style="edgeStyle=orthogonalEdgeStyle;rounded=0;orthogonalLoop=1;jettySize=auto;html=1;exitX=0.75;exitY=1;exitDx=0;exitDy=0;entryX=1;entryY=0.5;entryDx=0;entryDy=0;" edge="1" parent="WIyWlLk6GJQsqaUBKTNV-1" source="avi4M7rhJnKpPUip_5Xu-13" target="avi4M7rhJnKpPUip_5Xu-1">
          <mxGeometry relative="1" as="geometry" />
        </mxCell>
        <mxCell id="avi4M7rhJnKpPUip_5Xu-13" value="&lt;p style=&quot;margin:0px;margin-top:4px;text-align:center;&quot;&gt;&lt;b&gt;СервисПоиска&lt;/b&gt;&lt;/p&gt;&lt;hr size=&quot;1&quot;&gt;&lt;div style=&quot;height:2px;&quot;&gt;&lt;/div&gt;" style="verticalAlign=top;align=left;overflow=fill;fontSize=12;fontFamily=Helvetica;html=1;whiteSpace=wrap;" vertex="1" parent="WIyWlLk6GJQsqaUBKTNV-1">
          <mxGeometry x="640" y="80" width="140" height="60" as="geometry" />
        </mxCell>
        <mxCell id="avi4M7rhJnKpPUip_5Xu-15" style="edgeStyle=orthogonalEdgeStyle;rounded=0;orthogonalLoop=1;jettySize=auto;html=1;exitX=0.5;exitY=1;exitDx=0;exitDy=0;entryX=0.5;entryY=0;entryDx=0;entryDy=0;" edge="1" parent="WIyWlLk6GJQsqaUBKTNV-1" source="avi4M7rhJnKpPUip_5Xu-14" target="avi4M7rhJnKpPUip_5Xu-2">
          <mxGeometry relative="1" as="geometry" />
        </mxCell>
        <mxCell id="avi4M7rhJnKpPUip_5Xu-14" value="&lt;p style=&quot;margin:0px;margin-top:4px;text-align:center;&quot;&gt;&lt;b&gt;СервисПробок&lt;/b&gt;&lt;/p&gt;&lt;hr size=&quot;1&quot;&gt;&lt;div style=&quot;height:2px;&quot;&gt;&lt;/div&gt;" style="verticalAlign=top;align=left;overflow=fill;fontSize=12;fontFamily=Helvetica;html=1;whiteSpace=wrap;" vertex="1" parent="WIyWlLk6GJQsqaUBKTNV-1">
          <mxGeometry x="160" y="80" width="140" height="60" as="geometry" />
        </mxCell>
        <mxCell id="avi4M7rhJnKpPUip_5Xu-50" style="edgeStyle=orthogonalEdgeStyle;rounded=0;orthogonalLoop=1;jettySize=auto;html=1;exitX=1;exitY=0.5;exitDx=0;exitDy=0;entryX=1;entryY=0.75;entryDx=0;entryDy=0;" edge="1" parent="WIyWlLk6GJQsqaUBKTNV-1" source="avi4M7rhJnKpPUip_5Xu-23" target="avi4M7rhJnKpPUip_5Xu-38">
          <mxGeometry relative="1" as="geometry">
            <Array as="points">
              <mxPoint x="640" y="-490" />
              <mxPoint x="640" y="-75" />
            </Array>
          </mxGeometry>
        </mxCell>
        <mxCell id="avi4M7rhJnKpPUip_5Xu-23" value="&lt;p style=&quot;margin:0px;margin-top:4px;text-align:center;&quot;&gt;&lt;b&gt;ОтображениеОбъекта&lt;/b&gt;&lt;/p&gt;&lt;hr size=&quot;1&quot;&gt;&lt;div style=&quot;height:2px;&quot;&gt;&lt;/div&gt;" style="verticalAlign=top;align=left;overflow=fill;fontSize=12;fontFamily=Helvetica;html=1;whiteSpace=wrap;" vertex="1" parent="WIyWlLk6GJQsqaUBKTNV-1">
          <mxGeometry x="440" y="-520" width="140" height="60" as="geometry" />
        </mxCell>
        <mxCell id="avi4M7rhJnKpPUip_5Xu-52" style="edgeStyle=orthogonalEdgeStyle;rounded=0;orthogonalLoop=1;jettySize=auto;html=1;exitX=1;exitY=0.5;exitDx=0;exitDy=0;entryX=1;entryY=0.5;entryDx=0;entryDy=0;" edge="1" parent="WIyWlLk6GJQsqaUBKTNV-1" source="avi4M7rhJnKpPUip_5Xu-24" target="6uPMKLpAiF44iVFKBVUC-21">
          <mxGeometry relative="1" as="geometry">
            <Array as="points">
              <mxPoint x="620" y="-410" />
              <mxPoint x="620" y="-10" />
            </Array>
          </mxGeometry>
        </mxCell>
        <mxCell id="avi4M7rhJnKpPUip_5Xu-24" value="&lt;p style=&quot;margin:0px;margin-top:4px;text-align:center;&quot;&gt;&lt;b&gt;ОтображениеМаршрута&lt;/b&gt;&lt;/p&gt;&lt;hr size=&quot;1&quot;&gt;&lt;div style=&quot;height:2px;&quot;&gt;&lt;/div&gt;" style="verticalAlign=top;align=left;overflow=fill;fontSize=12;fontFamily=Helvetica;html=1;whiteSpace=wrap;" vertex="1" parent="WIyWlLk6GJQsqaUBKTNV-1">
          <mxGeometry x="440" y="-440" width="140" height="60" as="geometry" />
        </mxCell>
        <mxCell id="avi4M7rhJnKpPUip_5Xu-44" style="edgeStyle=orthogonalEdgeStyle;rounded=0;orthogonalLoop=1;jettySize=auto;html=1;exitX=0.5;exitY=1;exitDx=0;exitDy=0;entryX=1;entryY=0.25;entryDx=0;entryDy=0;" edge="1" parent="WIyWlLk6GJQsqaUBKTNV-1" source="avi4M7rhJnKpPUip_5Xu-26" target="6uPMKLpAiF44iVFKBVUC-21">
          <mxGeometry relative="1" as="geometry" />
        </mxCell>
        <mxCell id="avi4M7rhJnKpPUip_5Xu-49" style="edgeStyle=orthogonalEdgeStyle;rounded=0;orthogonalLoop=1;jettySize=auto;html=1;exitX=0.25;exitY=1;exitDx=0;exitDy=0;entryX=0.75;entryY=0;entryDx=0;entryDy=0;" edge="1" parent="WIyWlLk6GJQsqaUBKTNV-1" source="avi4M7rhJnKpPUip_5Xu-26" target="avi4M7rhJnKpPUip_5Xu-38">
          <mxGeometry relative="1" as="geometry" />
        </mxCell>
        <mxCell id="avi4M7rhJnKpPUip_5Xu-26" value="&lt;p style=&quot;margin:0px;margin-top:4px;text-align:center;&quot;&gt;&lt;b&gt;ОтображениеДороги&lt;/b&gt;&lt;/p&gt;&lt;hr size=&quot;1&quot;&gt;&lt;div style=&quot;height:2px;&quot;&gt;&lt;/div&gt;" style="verticalAlign=top;align=left;overflow=fill;fontSize=12;fontFamily=Helvetica;html=1;whiteSpace=wrap;" vertex="1" parent="WIyWlLk6GJQsqaUBKTNV-1">
          <mxGeometry x="440" y="-280" width="140" height="60" as="geometry" />
        </mxCell>
        <mxCell id="avi4M7rhJnKpPUip_5Xu-48" style="edgeStyle=orthogonalEdgeStyle;rounded=0;orthogonalLoop=1;jettySize=auto;html=1;exitX=1;exitY=0.5;exitDx=0;exitDy=0;entryX=1;entryY=0.5;entryDx=0;entryDy=0;" edge="1" parent="WIyWlLk6GJQsqaUBKTNV-1" source="avi4M7rhJnKpPUip_5Xu-27" target="avi4M7rhJnKpPUip_5Xu-14">
          <mxGeometry relative="1" as="geometry" />
        </mxCell>
        <mxCell id="avi4M7rhJnKpPUip_5Xu-27" value="&lt;p style=&quot;margin:0px;margin-top:4px;text-align:center;&quot;&gt;&lt;b&gt;ОтображениеПробок&lt;/b&gt;&lt;/p&gt;&lt;hr size=&quot;1&quot;&gt;&lt;div style=&quot;height:2px;&quot;&gt;&lt;/div&gt;" style="verticalAlign=top;align=left;overflow=fill;fontSize=12;fontFamily=Helvetica;html=1;whiteSpace=wrap;" vertex="1" parent="WIyWlLk6GJQsqaUBKTNV-1">
          <mxGeometry x="440" y="-360" width="140" height="60" as="geometry" />
        </mxCell>
        <mxCell id="avi4M7rhJnKpPUip_5Xu-29" style="edgeStyle=orthogonalEdgeStyle;rounded=0;orthogonalLoop=1;jettySize=auto;html=1;exitX=1;exitY=0.5;exitDx=0;exitDy=0;entryX=0;entryY=0.5;entryDx=0;entryDy=0;" edge="1" parent="WIyWlLk6GJQsqaUBKTNV-1" source="avi4M7rhJnKpPUip_5Xu-28" target="avi4M7rhJnKpPUip_5Xu-23">
          <mxGeometry relative="1" as="geometry" />
        </mxCell>
        <mxCell id="avi4M7rhJnKpPUip_5Xu-30" style="edgeStyle=orthogonalEdgeStyle;rounded=0;orthogonalLoop=1;jettySize=auto;html=1;exitX=1;exitY=0.5;exitDx=0;exitDy=0;entryX=0;entryY=0.5;entryDx=0;entryDy=0;" edge="1" parent="WIyWlLk6GJQsqaUBKTNV-1" source="avi4M7rhJnKpPUip_5Xu-28" target="avi4M7rhJnKpPUip_5Xu-24">
          <mxGeometry relative="1" as="geometry" />
        </mxCell>
        <mxCell id="avi4M7rhJnKpPUip_5Xu-31" style="edgeStyle=orthogonalEdgeStyle;rounded=0;orthogonalLoop=1;jettySize=auto;html=1;exitX=1;exitY=0.5;exitDx=0;exitDy=0;entryX=0;entryY=0.5;entryDx=0;entryDy=0;" edge="1" parent="WIyWlLk6GJQsqaUBKTNV-1" source="avi4M7rhJnKpPUip_5Xu-28" target="avi4M7rhJnKpPUip_5Xu-27">
          <mxGeometry relative="1" as="geometry" />
        </mxCell>
        <mxCell id="avi4M7rhJnKpPUip_5Xu-32" style="edgeStyle=orthogonalEdgeStyle;rounded=0;orthogonalLoop=1;jettySize=auto;html=1;exitX=1;exitY=0.5;exitDx=0;exitDy=0;entryX=0;entryY=0.5;entryDx=0;entryDy=0;" edge="1" parent="WIyWlLk6GJQsqaUBKTNV-1" source="avi4M7rhJnKpPUip_5Xu-28" target="avi4M7rhJnKpPUip_5Xu-26">
          <mxGeometry relative="1" as="geometry" />
        </mxCell>
        <mxCell id="avi4M7rhJnKpPUip_5Xu-34" style="edgeStyle=orthogonalEdgeStyle;rounded=0;orthogonalLoop=1;jettySize=auto;html=1;exitX=0;exitY=0.5;exitDx=0;exitDy=0;" edge="1" parent="WIyWlLk6GJQsqaUBKTNV-1" source="avi4M7rhJnKpPUip_5Xu-28" target="avi4M7rhJnKpPUip_5Xu-33">
          <mxGeometry relative="1" as="geometry" />
        </mxCell>
        <mxCell id="avi4M7rhJnKpPUip_5Xu-36" style="edgeStyle=orthogonalEdgeStyle;rounded=0;orthogonalLoop=1;jettySize=auto;html=1;exitX=0;exitY=0.5;exitDx=0;exitDy=0;entryX=1;entryY=0.5;entryDx=0;entryDy=0;" edge="1" parent="WIyWlLk6GJQsqaUBKTNV-1" source="avi4M7rhJnKpPUip_5Xu-28" target="avi4M7rhJnKpPUip_5Xu-35">
          <mxGeometry relative="1" as="geometry" />
        </mxCell>
        <mxCell id="avi4M7rhJnKpPUip_5Xu-28" value="&lt;p style=&quot;margin:0px;margin-top:4px;text-align:center;&quot;&gt;&lt;b&gt;ОтображениеКарты&lt;/b&gt;&lt;/p&gt;&lt;hr size=&quot;1&quot;&gt;&lt;div style=&quot;height:2px;&quot;&gt;&lt;/div&gt;" style="verticalAlign=top;align=left;overflow=fill;fontSize=12;fontFamily=Helvetica;html=1;whiteSpace=wrap;" vertex="1" parent="WIyWlLk6GJQsqaUBKTNV-1">
          <mxGeometry x="240" y="-520" width="140" height="60" as="geometry" />
        </mxCell>
        <mxCell id="avi4M7rhJnKpPUip_5Xu-33" value="&lt;p style=&quot;margin:0px;margin-top:4px;text-align:center;&quot;&gt;&lt;b&gt;ТемаОформления&lt;/b&gt;&lt;/p&gt;&lt;hr size=&quot;1&quot;&gt;&lt;div style=&quot;height:2px;&quot;&gt;&lt;/div&gt;" style="verticalAlign=top;align=left;overflow=fill;fontSize=12;fontFamily=Helvetica;html=1;whiteSpace=wrap;" vertex="1" parent="WIyWlLk6GJQsqaUBKTNV-1">
          <mxGeometry x="60" y="-520" width="140" height="60" as="geometry" />
        </mxCell>
        <mxCell id="avi4M7rhJnKpPUip_5Xu-37" style="edgeStyle=orthogonalEdgeStyle;rounded=0;orthogonalLoop=1;jettySize=auto;html=1;exitX=1;exitY=0.75;exitDx=0;exitDy=0;entryX=0.25;entryY=0;entryDx=0;entryDy=0;" edge="1" parent="WIyWlLk6GJQsqaUBKTNV-1" source="avi4M7rhJnKpPUip_5Xu-35" target="avi4M7rhJnKpPUip_5Xu-13">
          <mxGeometry relative="1" as="geometry">
            <Array as="points">
              <mxPoint x="240" y="-395" />
              <mxPoint x="240" y="-180" />
              <mxPoint x="675" y="-180" />
            </Array>
          </mxGeometry>
        </mxCell>
        <mxCell id="avi4M7rhJnKpPUip_5Xu-35" value="&lt;p style=&quot;margin:0px;margin-top:4px;text-align:center;&quot;&gt;&lt;b&gt;ОтображениеПоиск&lt;/b&gt;&lt;/p&gt;&lt;hr size=&quot;1&quot;&gt;&lt;div style=&quot;height:2px;&quot;&gt;&lt;/div&gt;" style="verticalAlign=top;align=left;overflow=fill;fontSize=12;fontFamily=Helvetica;html=1;whiteSpace=wrap;" vertex="1" parent="WIyWlLk6GJQsqaUBKTNV-1">
          <mxGeometry x="60" y="-440" width="140" height="60" as="geometry" />
        </mxCell>
        <mxCell id="avi4M7rhJnKpPUip_5Xu-40" style="edgeStyle=orthogonalEdgeStyle;rounded=0;orthogonalLoop=1;jettySize=auto;html=1;exitX=1;exitY=0.25;exitDx=0;exitDy=0;entryX=0.5;entryY=0;entryDx=0;entryDy=0;" edge="1" parent="WIyWlLk6GJQsqaUBKTNV-1" source="avi4M7rhJnKpPUip_5Xu-38" target="avi4M7rhJnKpPUip_5Xu-0">
          <mxGeometry relative="1" as="geometry" />
        </mxCell>
        <mxCell id="avi4M7rhJnKpPUip_5Xu-41" style="edgeStyle=orthogonalEdgeStyle;rounded=0;orthogonalLoop=1;jettySize=auto;html=1;exitX=1;exitY=0.5;exitDx=0;exitDy=0;entryX=0.75;entryY=0;entryDx=0;entryDy=0;" edge="1" parent="WIyWlLk6GJQsqaUBKTNV-1" source="avi4M7rhJnKpPUip_5Xu-38" target="avi4M7rhJnKpPUip_5Xu-2">
          <mxGeometry relative="1" as="geometry" />
        </mxCell>
        <mxCell id="avi4M7rhJnKpPUip_5Xu-38" value="&lt;p style=&quot;margin:0px;margin-top:4px;text-align:center;&quot;&gt;&lt;b&gt;СервисТекущего&lt;br&gt;Положения&lt;/b&gt;&lt;/p&gt;&lt;hr size=&quot;1&quot;&gt;&lt;div style=&quot;height:2px;&quot;&gt;&lt;/div&gt;" style="verticalAlign=top;align=left;overflow=fill;fontSize=12;fontFamily=Helvetica;html=1;whiteSpace=wrap;" vertex="1" parent="WIyWlLk6GJQsqaUBKTNV-1">
          <mxGeometry x="280" y="-120" width="140" height="60" as="geometry" />
        </mxCell>
      </root>
    </mxGraphModel>
  </diagram>
</mxfile>
